<?xml version="1.0" encoding="UTF-8"?>
<!DOCTYPE svg PUBLIC "-//W3C//DTD SVG 1.1//EN" "http://www.w3.org/Graphics/SVG/1.1/DTD/svg11.dtd">
<!-- Creator: CorelDRAW X7 -->
<svg xmlns="http://www.w3.org/2000/svg" xml:space="preserve" width="215.9mm" height="279.4mm" version="1.1" style="shape-rendering:geometricPrecision; text-rendering:geometricPrecision; image-rendering:optimizeQuality; fill-rule:evenodd; clip-rule:evenodd"
viewBox="0 0 21590 27940"
 xmlns:xlink="http://www.w3.org/1999/xlink">
 <defs>
  <style type="text/css">
   <![CDATA[
    .str2 {stroke:black;stroke-width:20;stroke-linejoin:round;stroke-opacity:0.250980}
    .str5 {stroke:black;stroke-width:20}
    .str4 {stroke:black;stroke-width:10}
    .str0 {stroke:#373435;stroke-width:20;stroke-linejoin:round}
    .str1 {stroke:black;stroke-width:20;stroke-linejoin:round}
    .str3 {stroke:black;stroke-width:25;stroke-linecap:round;stroke-linejoin:round}
    .fil5 {fill:none}
    .fil2 {fill:#333333}
    .fil3 {fill:#4D4D4D}
    .fil1 {fill:#B3B3B3}
    .fil6 {fill:#CCCCCC}
    .fil0 {fill:#E6E6E6}
    .fil8 {fill:#FF9933}
    .fil7 {fill:white}
    .fil4 {fill:#99FFFF;fill-opacity:0.250980}
   ]]>
  </style>
 </defs>
 <g id="Capa_x0020_1">
  <metadata id="CorelCorpID_0Corel-Layer"/>
  <g id="syringe">
   <path class="fil0 str0" d="M16052 4446l-69 -67 -266 154c-51,29 -196,-125 -322,-342 -125,-217 -186,-420 -134,-450l33 -19c-2,-2 -5,-3 -7,-4l-490 -222c-9,-4 -16,-5 -21,-2 -24,14 4,108 63,209 29,51 61,94 88,123l673 658c9,9 18,18 26,26l3 1 0 1 2 2 2 1 1 1c2,2 5,4 7,6l0 0c19,15 36,26 51,32l490 223c9,4 16,5 21,2 24,-14 -4,-108 -63,-209 -29,-51 -61,-94 -88,-124z"/>
   <g id="body2">
    <path class="fil0 str0" d="M15338 3751c-16,-13 -31,-23 -44,-29l-32 18 -1 1c-34,19 -20,112 28,233l125 -72c-14,-36 -25,-69 -33,-99 -2,-6 -3,-11 -5,-17 -8,-8 -16,-16 -23,-23l-2 -2 -1 0 -2 -2 -2 -1 -1 -1 -7 -6 0 0z"/>
    <path class="fil0 str0" d="M15655 4319l-125 72c81,103 154,161 187,142l2 -1 -2 -2c24,-14 24,-63 6,-133 -22,-22 -45,-48 -68,-78z"/>
    <path class="fil0 str0" d="M15157 4051l132 -77c-48,-121 -62,-214 -28,-233l-265 153 161 157zm373 340l-16 9 86 84c9,9 18,18 26,26l3 1 0 1 2 2 2 1 1 1 7 6 0 0c16,13 31,23 44,29l32 -18c-33,19 -106,-39 -187,-142z"/>
   </g>
   <g id="plunger">
    <g id="shaft">
     <path class="fil1 str1" d="M18838 2978c-77,44 -289,-180 -474,-501 -185,-321 -273,-617 -197,-661 77,-44 289,180 474,501 186,321 274,617 197,661z"/>
     <path class="fil0 str1" d="M18382 2188l-9282 5359c44,56 90,124 135,201 44,76 80,151 106,216l9282 -5359 0 0c27,-15 -4,-122 -71,-237 -66,-115 -142,-196 -170,-180l0 0z"/>
     <path class="fil0 str0" d="M18641 2317c186,321 274,617 197,661l87 -50c77,-45 -11,-341 -197,-661 -185,-321 -397,-546 -474,-501l-87 50c77,-44 289,180 474,501z"/>
    </g>
    <g id="rubber">
     <path class="fil2 str1" d="M9354 8207c-53,30 -197,-123 -323,-342 -126,-218 -186,-420 -134,-450 52,-30 196,123 323,341 126,219 186,421 134,451z"/>
     <path class="fil2 str1" d="M9183 8305c-52,30 -197,-122 -323,-341 -126,-218 -186,-420 -134,-450 52,-30 196,123 323,341 126,219 186,420 134,450z"/>
     <path class="fil2 str1" d="M8742 8560c-25,14 -71,-13 -126,-69l0 0 -243 -246 -91 -333 0 0c-21,-76 -22,-129 3,-144 52,-30 197,123 323,342 126,218 186,420 134,450z"/>
     <path class="fil3 str1" d="M9224 8156l75 -44c40,-23 -6,-176 -102,-343 -96,-166 -206,-282 -246,-259l-75 43c62,61 137,161 207,282 70,121 119,236 141,321z"/>
     <path class="fil3 str1" d="M9053 8254l14 -8 61 -35c40,-23 -6,-176 -102,-343 -96,-166 -206,-283 -246,-260l-61 35 -14 9 -270 156c62,60 138,161 207,282 70,120 120,236 141,320l270 -156z"/>
     <path class="fil2 str0" d="M9254 7736c-126,-218 -271,-371 -323,-341l-34 20c52,-30 196,123 323,341 126,219 186,421 134,451l34 -20c52,-30 -8,-232 -134,-451z"/>
     <path class="fil2 str0" d="M9083 7835c-126,-218 -271,-371 -323,-341l-34 20c52,-30 196,123 323,341 126,219 186,420 134,450l34 -20c52,-30 -8,-231 -134,-450z"/>
     <path class="fil2 str0" d="M8642 8090c-126,-219 -270,-372 -323,-341l-34 19c52,-30 197,123 323,342 126,218 186,420 134,450l34 -20c52,-30 -8,-232 -134,-450z"/>
     <path class="fil2 str1" d="M8468 8342c15,-9 -2,-67 -38,-130 -37,-63 -78,-107 -93,-98l-749 472c-80,51 5,213 98,169l782 -413z"/>
    </g>
   </g>
   <path id="liquid" class="fil4 str2" d="M6868 8587l1417 -819 0 0c52,-30 197,124 323,342 125,217 185,417 133,447l1 3 -1417 818 -228 -45 -985 505c-163,-98 -246,-242 -249,-431l931 -601 74 -219z"/>
   <g id="body">
    <g id="tube">
     <path class="fil5 str1" d="M6868 8587l8394 -4847 0 0c52,-30 197,125 322,342 126,217 185,418 133,448l2 2 -8394 4846c52,-30 -8,-230 -134,-448 -124,-215 -266,-366 -319,-340l-4 -3z"/>
     <path class="fil5 str1" d="M6794 8806l-931 601c3,189 86,333 249,431l985 -505c35,-20 -5,-155 -89,-300 -84,-145 -180,-247 -214,-227z"/>
     <path class="fil5 str1" d="M7325 9378c52,-30 -8,-230 -134,-448 -124,-215 -266,-366 -319,-340l-4 -3 -74 219c34,-20 130,82 214,227 84,145 124,280 89,300l228 45z"/>
    </g>
    <g id="flange">
     <path class="fil6 str0" d="M14927 3826l69 68 266 -154c52,-30 197,125 322,342 126,217 187,420 135,450l-34 19c2,1 5,2 7,3l490 223c9,4 16,5 21,2 24,-14 -4,-108 -63,-209 -29,-51 -61,-94 -88,-124l-673 -657c-9,-9 -18,-18 -26,-26l-2 -2 -1 0 -2 -2 -2 -1 -1 -1c-2,-2 -4,-4 -7,-6l0 0c-19,-16 -36,-27 -51,-33l-490 -222c-9,-4 -16,-5 -21,-2 -24,14 4,108 63,209 29,51 61,94 88,123z"/>
     <path class="fil7 str0" d="M14797 3496c-9,-4 -16,-5 -21,-2l120 -69c5,-3 12,-2 20,2l491 222c15,6 32,17 50,33l1 0 7 6 1 1 1 1 3 2 0 0 2 2c9,8 18,17 27,26l672 657c28,30 60,73 89,124 59,101 86,195 62,209l-119 69c17,-10 8,-60 -20,-125 -11,-26 -26,-55 -43,-84 -29,-51 -61,-94 -88,-124l-363 -355 -310 -302c-9,-9 -18,-18 -26,-26l-2 -2 -1 0 -2 -2 -2 -1 -1 -1 -7 -6 0 0c-19,-16 -36,-27 -51,-33l-490 -222z"/>
    </g>
    <g id="markings">
     <g id="tens">
      <path class="fil5 str3" d="M7232 8684c-42,-57 -83,-104 -118,-136"/>
      <path class="fil5 str3" d="M7296 8647c-42,-57 -83,-104 -118,-136"/>
      <path class="fil5 str3" d="M7360 8610c-42,-57 -83,-104 -118,-136"/>
      <path class="fil5 str3" d="M7424 8573c-42,-57 -83,-104 -118,-136"/>
      <path class="fil5 str3" d="M7552 8499c-42,-57 -83,-104 -118,-136"/>
      <path class="fil5 str3" d="M7617 8462c-43,-57 -84,-104 -119,-136"/>
      <path class="fil5 str3" d="M7681 8425c-43,-57 -84,-104 -119,-136"/>
      <path class="fil5 str3" d="M7745 8388c-43,-57 -83,-104 -119,-136"/>
      <path class="fil5 str3" d="M7873 8314c-43,-57 -83,-104 -119,-136"/>
      <path class="fil5 str3" d="M7937 8277c-43,-57 -83,-104 -118,-136"/>
      <path class="fil5 str3" d="M8001 8240c-42,-57 -83,-104 -118,-136"/>
      <path class="fil5 str3" d="M8065 8203c-42,-57 -83,-104 -118,-136"/>
      <path class="fil5 str3" d="M8193 8129c-42,-57 -83,-104 -118,-136"/>
      <path class="fil5 str3" d="M8257 8092c-42,-57 -83,-104 -118,-136"/>
      <path class="fil5 str3" d="M8321 8055c-42,-57 -83,-104 -118,-136"/>
      <path class="fil5 str3" d="M8385 8018c-42,-57 -83,-104 -118,-136"/>
      <path class="fil5 str3" d="M8514 7944c-43,-57 -84,-104 -119,-136"/>
      <path class="fil5 str3" d="M8578 7907c-43,-57 -83,-104 -119,-136"/>
      <path class="fil5 str3" d="M8642 7870c-43,-57 -83,-104 -119,-136"/>
      <path class="fil5 str3" d="M8706 7833c-43,-57 -83,-104 -119,-136"/>
      <path class="fil5 str3" d="M8834 7759c-42,-57 -83,-104 -118,-136"/>
      <path class="fil5 str3" d="M8898 7722c-42,-57 -83,-104 -118,-136"/>
      <path class="fil5 str3" d="M8962 7685c-42,-57 -83,-104 -118,-136"/>
      <path class="fil5 str3" d="M9026 7648c-42,-57 -83,-104 -118,-136"/>
      <path class="fil5 str3" d="M9154 7574c-42,-57 -83,-104 -118,-136"/>
      <path class="fil5 str3" d="M9218 7537c-42,-57 -83,-104 -118,-136"/>
      <path class="fil5 str3" d="M9283 7500c-43,-57 -84,-104 -119,-136"/>
      <path class="fil5 str3" d="M9347 7463c-43,-57 -83,-104 -119,-136"/>
      <path class="fil5 str3" d="M9475 7389c-43,-57 -83,-104 -119,-136"/>
      <path class="fil5 str3" d="M9539 7352c-43,-57 -83,-104 -118,-136"/>
      <path class="fil5 str3" d="M9603 7315c-42,-57 -83,-104 -118,-136"/>
      <path class="fil5 str3" d="M9667 7278c-42,-57 -83,-104 -118,-136"/>
      <path class="fil5 str3" d="M9795 7204c-42,-57 -83,-104 -118,-136"/>
      <path class="fil5 str3" d="M9859 7167c-42,-57 -83,-104 -118,-136"/>
      <path class="fil5 str3" d="M9923 7130c-42,-57 -83,-104 -118,-136"/>
      <path class="fil5 str3" d="M9987 7093c-42,-57 -83,-104 -118,-136"/>
      <path class="fil5 str3" d="M10116 7019c-43,-57 -84,-104 -119,-136"/>
      <path class="fil5 str3" d="M10180 6982c-43,-57 -83,-104 -119,-136"/>
      <path class="fil5 str3" d="M10244 6945c-43,-57 -83,-104 -119,-136"/>
      <path class="fil5 str3" d="M10308 6908c-43,-57 -83,-104 -119,-136"/>
      <path class="fil5 str3" d="M10436 6834c-42,-57 -83,-104 -118,-136"/>
      <path class="fil5 str3" d="M10500 6797c-42,-57 -83,-104 -118,-136"/>
      <path class="fil5 str3" d="M10564 6760c-42,-57 -83,-104 -118,-136"/>
      <path class="fil5 str3" d="M10628 6723c-42,-57 -83,-104 -118,-136"/>
      <path class="fil5 str3" d="M10756 6649c-42,-57 -83,-104 -118,-136"/>
      <path class="fil5 str3" d="M10820 6612c-42,-57 -83,-104 -118,-136"/>
      <path class="fil5 str3" d="M10885 6575c-43,-57 -84,-104 -119,-136"/>
      <path class="fil5 str3" d="M10949 6538c-43,-57 -84,-104 -119,-136"/>
      <path class="fil5 str3" d="M11077 6464c-43,-57 -83,-104 -119,-136"/>
      <path class="fil5 str3" d="M11141 6427c-43,-57 -83,-104 -119,-136"/>
      <path class="fil5 str3" d="M11205 6390c-43,-57 -83,-104 -118,-136"/>
      <path class="fil5 str3" d="M11269 6353c-42,-57 -83,-104 -118,-136"/>
      <path class="fil5 str3" d="M11397 6279c-42,-57 -83,-104 -118,-136"/>
      <path class="fil5 str3" d="M11461 6242c-42,-57 -83,-104 -118,-136"/>
      <path class="fil5 str3" d="M11525 6205c-42,-57 -83,-104 -118,-136"/>
      <path class="fil5 str3" d="M11589 6168c-42,-57 -83,-104 -118,-136"/>
      <path class="fil5 str3" d="M11718 6094c-43,-57 -84,-104 -119,-136"/>
      <path class="fil5 str3" d="M11782 6057c-43,-57 -84,-104 -119,-136"/>
      <path class="fil5 str3" d="M11846 6020c-43,-57 -83,-104 -119,-136"/>
      <path class="fil5 str3" d="M11910 5983c-43,-57 -83,-104 -119,-136"/>
      <path class="fil5 str3" d="M12038 5909c-43,-57 -83,-104 -118,-136"/>
      <path class="fil5 str3" d="M12102 5872c-42,-57 -83,-104 -118,-136"/>
      <path class="fil5 str3" d="M12166 5835c-42,-57 -83,-104 -118,-136"/>
      <path class="fil5 str3" d="M12230 5798c-42,-57 -83,-104 -118,-136"/>
      <path class="fil5 str3" d="M12358 5724c-42,-57 -83,-104 -118,-136"/>
      <path class="fil5 str3" d="M12422 5687c-42,-57 -83,-104 -118,-136"/>
      <path class="fil5 str3" d="M12487 5650c-43,-57 -84,-104 -119,-136"/>
      <path class="fil5 str3" d="M12551 5613c-43,-57 -84,-104 -119,-136"/>
      <path class="fil5 str3" d="M12679 5539c-43,-57 -83,-104 -119,-136"/>
      <path class="fil5 str3" d="M12743 5502c-43,-57 -83,-104 -119,-136"/>
      <path class="fil5 str3" d="M12807 5465c-43,-57 -83,-104 -118,-136"/>
      <path class="fil5 str3" d="M12871 5428c-42,-57 -83,-104 -118,-136"/>
      <path class="fil5 str3" d="M12999 5354c-42,-57 -83,-104 -118,-136"/>
      <path class="fil5 str3" d="M13063 5317c-42,-57 -83,-104 -118,-136"/>
      <path class="fil5 str3" d="M13127 5280c-42,-57 -83,-104 -118,-136"/>
      <path class="fil5 str3" d="M13191 5243c-42,-57 -83,-104 -118,-136"/>
      <path class="fil5 str3" d="M13320 5169c-43,-57 -84,-104 -119,-136"/>
      <path class="fil5 str3" d="M13384 5132c-43,-57 -84,-104 -119,-136"/>
      <path class="fil5 str3" d="M13448 5095c-43,-57 -83,-104 -119,-136"/>
      <path class="fil5 str3" d="M13512 5058c-43,-57 -83,-104 -119,-136"/>
     </g>
     <g id="halves">
      <path class="fil5 str3" d="M7524 8586c-76,-110 -149,-192 -200,-221"/>
      <path class="fil5 str3" d="M8165 8216c-76,-110 -149,-192 -201,-221"/>
      <path class="fil5 str3" d="M8806 7846c-76,-110 -150,-191 -201,-221"/>
      <path class="fil5 str3" d="M9447 7476c-76,-110 -150,-191 -201,-221"/>
      <path class="fil5 str3" d="M10087 7106c-75,-110 -149,-191 -200,-221"/>
      <path class="fil5 str3" d="M10728 6736c-76,-110 -149,-191 -200,-221"/>
      <path class="fil5 str3" d="M11369 6366c-76,-110 -149,-191 -201,-221"/>
      <path class="fil5 str3" d="M12010 5996c-76,-110 -150,-191 -201,-221"/>
      <path class="fil5 str3" d="M12651 5626c-76,-110 -150,-191 -201,-221"/>
      <path class="fil5 str3" d="M13291 5256c-76,-110 -149,-191 -200,-221"/>
     </g>
     <g id="units">
      <path class="fil5 str3" d="M13722 5252c-8,-15 -17,-31 -26,-46 -133,-231 -284,-395 -336,-365"/>
      <path class="fil5 str3" d="M7314 8951c-8,-15 -17,-30 -26,-45 -133,-232 -284,-395 -336,-365"/>
      <path class="fil5 str3" d="M7955 8581c-8,-15 -17,-30 -26,-45 -133,-232 -284,-395 -336,-365"/>
      <path class="fil5 str3" d="M8596 8211c-9,-15 -17,-30 -26,-45 -134,-232 -284,-395 -336,-365"/>
      <path class="fil5 str3" d="M9236 7841c-8,-15 -16,-30 -25,-45 -134,-232 -284,-395 -336,-365"/>
      <path class="fil5 str3" d="M9877 7471c-8,-15 -17,-30 -25,-45 -134,-232 -285,-395 -336,-365"/>
      <path class="fil5 str3" d="M10518 7101c-8,-15 -17,-30 -26,-45 -133,-232 -284,-395 -336,-365"/>
      <path class="fil5 str3" d="M11159 6732c-8,-16 -17,-31 -26,-46 -134,-232 -284,-395 -336,-365"/>
      <path class="fil5 str3" d="M11800 6362c-9,-16 -17,-31 -26,-46 -134,-232 -284,-395 -336,-365"/>
      <path class="fil5 str3" d="M12440 5992c-8,-15 -16,-31 -25,-46 -134,-232 -284,-395 -336,-365"/>
      <path class="fil5 str3" d="M13081 5622c-8,-15 -17,-31 -25,-46 -134,-231 -285,-395 -337,-365"/>
     </g>
    </g>
   </g>
   <g id="needle">
    <polygon class="fil6 str4" points="2950,11342 4672,10348 4701,10399 3218,11255 "/>
    <path class="fil7 str4" d="M4708 10410c73,31 138,29 201,19 -53,-92 -106,-184 -159,-276 -41,50 -76,105 -84,184 14,24 28,49 42,73z"/>
    <g>
     <path class="fil8 str5" d="M6904 9621c-52,30 -197,-123 -323,-341 -126,-219 -186,-421 -134,-451 52,-30 197,123 323,342 126,218 186,420 134,450z"/>
     <path class="fil8 str5" d="M6447 8829c52,-30 197,123 323,342 126,218 186,420 134,450l146 -84c52,-31 -8,-232 -134,-451 -126,-218 -271,-371 -323,-341l-146 84z"/>
     <path class="fil8 str1" d="M6479 8907c-561,313 -955,541 -1036,846 18,-11 69,43 113,119 44,76 65,146 46,157 305,82 700,-145 1251,-475 4,0 8,-1 11,-3 43,-25 -6,-191 -110,-371 -104,-180 -224,-306 -267,-281 -3,2 -5,4 -8,8z"/>
     <path class="fil8 str1" d="M4909 10429l693 -400c19,-11 -2,-81 -46,-157 -44,-76 -95,-130 -113,-119l-693 400 159 276z"/>
     <path class="fil8 str1" d="M4946 10040l497 -287c63,-238 317,-429 692,-650 -2,0 -3,1 -5,2l-779 450c-20,11 -26,37 -15,56l7 13 -348 202c-10,5 -9,5 -16,13l-77 103c-7,9 -7,9 -1,20l45 78z"/>
     <path class="fil8 str1" d="M5106 10316l496 -287c238,64 530,-60 910,-274 -2,1 -3,2 -5,3l-779 450c-20,11 -45,4 -57,-16l-7 -13 -349 202c-9,5 -9,5 -19,6l-128 16c-11,1 -11,1 -17,-9l-45 -78z"/>
     <rect class="fil8 str1" transform="matrix(0.325584 -0.187976 0.252234 0.436882 5017.2 10162.4)" width="3970.4" height="69.38"/>
    </g>
   </g>
  </g>
 </g>
</svg>
