<?xml version="1.0" encoding="utf-8"?>
<!-- Generator: Adobe Illustrator 23.0.1, SVG Export Plug-In . SVG Version: 6.00 Build 0)  -->
<svg version="1.1" id="Layer_1" xmlns="http://www.w3.org/2000/svg" xmlns:xlink="http://www.w3.org/1999/xlink" x="0px" y="0px"
	 viewBox="0 0 554.51 339.21" style="enable-background:new 0 0 554.51 339.21;" xml:space="preserve">
<style type="text/css">
	.st0{fill:#58595B;stroke:#231F20;stroke-width:3.1835;stroke-miterlimit:10;}
	.st1{fill:#BCBEC0;stroke:#231F20;stroke-width:3.1835;stroke-miterlimit:10;}
	.st2{fill:#58595B;}
	.st3{fill:#BCBEC0;}
	.st4{fill:#FFFFFF;}
	.st5{fill:none;stroke:#231F20;stroke-width:5.9415;stroke-miterlimit:10;}
	.st6{fill:#E6E7E8;}
	.st7{fill:none;stroke:#231F20;stroke-width:3.1835;stroke-miterlimit:10;}
	.st8{fill:#808285;stroke:#231F20;stroke-width:3.1835;stroke-miterlimit:10;}
	.st9{fill:#FFFFFF;stroke:#231F20;stroke-width:3.1835;stroke-miterlimit:10;}
	.st10{fill:#E6E7E8;stroke:#231F20;stroke-width:3.1835;stroke-miterlimit:10;}
	.st11{fill:#231F20;}
	.st12{fill:none;stroke:#231F20;stroke-width:3.1835;stroke-linecap:round;stroke-miterlimit:10;}
	.st13{fill:#61DDFF;stroke:#231F20;stroke-width:3.1057;stroke-miterlimit:10;}
</style>
<g>
	<path class="st0" d="M520.53,30.37c0,0,9.65-6.29,8.05-19.43l14.42,25.78c0,0-12.5-6.23-18.67-0.04L520.53,30.37z"/>
	<polygon class="st1" points="472.47,58.06 520.53,30.37 524.32,36.67 476.82,65.29 	"/>
	<path class="st2" d="M451.58,43.2c0,0,7.91-4.73,9.2-3.31c1.29,1.41,23.7,38.13,23.7,38.13s3.57,6.15-9.47,11.92L451.58,43.2z"/>
	<path class="st3" d="M437.35,75.9l18.99,28.44l14.14-3.35c0,0,5.32,8.54,6.85,2.99c1.53-5.55-14.4-37.02-16.25-37.6
		C459.22,65.8,437.35,75.9,437.35,75.9z"/>
	<path class="st4" d="M455.15,69.97c0,0,13.17,18.94,13.68,24.19c0.51,5.25,2.25,12.45,5.37,11.13c3.12-1.32,7.02-10.15-14.39-42.13
		L455.15,69.97z"/>
	<path class="st5" d="M257.83,224.71c-11.56,6.96-14.18,8.01-27.06,7.85c-17.33-0.21-32.86,0.14-43.89,6.78
		c-6.38,3.84-81.01,48.79-83.55,50.33s-10.91,0.12-10.91,0.12"/>
	<g>
		<path class="st6" d="M468.47,72.05l-20.05-33.29l-0.02,0.01c-9.06-14.36-20.45-23.23-25.87-19.96
			c-9.77,5.88,15.28,21.9,6.94,31.36L248.7,159.05l35.25,58.53l168.75-101.64c4.33-2.61,5.73-8.24,3.12-12.57l-10.47-17.39
			L468.47,72.05z"/>
	</g>
	<g>
		<path class="st4" d="M468.47,72.05l-20.05-33.29l-0.02,0.01c-9.06-14.36-20.45-23.23-25.87-19.96
			c-9.77,5.88,15.28,21.9,6.94,31.36L248.7,159.05l26.19,43.47l169.07-97.27c4.33-2.61,7.48-9.17,4.87-13.5l-3.48-5.77L468.47,72.05
			z"/>
	</g>
	<g>
		<path class="st7" d="M468.47,72.05l-20.05-33.29l-0.02,0.01c-9.06-14.36-20.45-23.23-25.87-19.96
			c-9.77,5.88,15.28,21.9,6.94,31.36L248.7,159.05l35.25,58.53l168.75-101.64c4.33-2.61,5.73-8.24,3.12-12.57l-10.47-17.39
			L468.47,72.05z"/>
	</g>
	<path class="st7" d="M465.29,73.97c0,0,12.71,18.94,11.7,27.34c-1,8.41-7.65-1.9-7.65-1.9l-11.66,7.03"/>
	<path class="st7" d="M451.58,43.2l3.67-2.21c2.81-1.69,6.32-1.02,7.84,1.49l21.4,35.53c1.52,2.52,0.47,5.93-2.34,7.63l-7.12,4.29"
		/>
	
		<rect x="494.99" y="20.1" transform="matrix(0.516 0.8566 -0.8566 0.516 282.3417 -404.0182)" class="st7" width="7.36" height="55.45"/>
	<path class="st7" d="M463.78,82.97c0,0,6.47,10.26,5.57,16.44"/>
	<path class="st8" d="M546.31,45.11L523.35,6.99c-1.01-1.68-0.47-3.87,1.21-4.89l0,0c1.68-1.01,3.87-0.47,4.89,1.21l22.96,38.12
		c1.01,1.68,0.47,3.87-1.21,4.89l0,0C549.51,47.33,547.32,46.79,546.31,45.11z"/>
	<path class="st7" d="M526.45,12.13c0,0,5.74,11.21-5.92,18.24"/>
	<path class="st7" d="M543.21,39.97c0,0-7.23-10.32-18.89-3.29"/>
	<path class="st9" d="M233.3,209.1l-11.34-18.82c-2.43-4.03-1.13-9.27,2.9-11.7l26.13-15.74l20.13,33.43L245,212.01
		C240.97,214.43,235.73,213.13,233.3,209.1z"/>
	<path class="st9" d="M196.2,223.15l-4-6.65c-1.74-2.88-0.81-6.63,2.08-8.37l28.21-16.99l10.29,17.09l-28.21,16.99
		C201.69,226.96,197.94,226.03,196.2,223.15z"/>
	<path class="st1" d="M257.84,224.73l-3.09-5.13c-1.21-2.01-0.56-4.61,1.45-5.82l18.69-11.26l7.47,12.39l-18.69,11.26
		C261.66,227.38,259.05,226.73,257.84,224.73z"/>
	<path class="st10" d="M31.59,319.08l-1.47-2.45c-1.29-2.14-0.6-4.92,1.54-6.21l159.31-95.96l6.46,10.73L38.65,320.83
		C36.22,322.29,33.06,321.51,31.59,319.08z"/>
	<path class="st1" d="M2.23,335.46L2.23,335.46c-1.27-2.11-0.59-4.85,1.52-6.12l24.97-15.04l4.59,7.63L8.33,336.98
		C6.23,338.24,3.5,337.57,2.23,335.46z"/>
	<path class="st11" d="M29.59,314.67L29.59,314.67c-0.64-1.06-0.29-2.45,0.77-3.09l16.97-10.22c1.06-0.64,2.45-0.29,3.09,0.77l0,0
		c0.64,1.06,0.29,2.45-0.77,3.09l-16.97,10.22C31.62,316.08,30.23,315.74,29.59,314.67z"/>
	<path class="st12" d="M386.5,155.51c15.27-9.2,0.49-34.69,0.49-34.69s-2.27-3.1,1.32-5.55c3.59-2.45,5.58,0.29,6.32,1.67
		c0,0,14.78,25.49-0.49,34.69"/>
	<path class="st12" d="M417.69,136.72c15.27-9.2,0.49-34.69,0.49-34.69s-2.27-3.1,1.32-5.55c3.59-2.45,5.58,0.29,6.32,1.67
		c0,0,14.78,25.49-0.49,34.69"/>
	<path class="st12" d="M316.15,197.3c15.27-9.2,0.49-34.69,0.49-34.69s-2.27-3.1,1.32-5.55c3.59-2.45,5.58,0.29,6.32,1.67
		c0,0,14.78,25.49-0.49,34.69"/>
	<path class="st12" d="M352.01,176.09c15.27-9.2,0.49-34.69,0.49-34.69s-2.27-3.1,1.32-5.55c3.59-2.45,5.58,0.29,6.32,1.67
		c0,0,14.78,25.49-0.49,34.69"/>
	<path class="st13" d="M331.83,127.33L331.83,127.33c-1.3-2.16-0.6-4.99,1.56-6.29l65.74-39.6c2.16-1.3,4.99-0.6,6.29,1.56l0,0
		c1.3,2.16,0.6,4.99-1.56,6.29l-65.74,39.6C335.96,130.19,333.13,129.49,331.83,127.33z"/>
	<line class="st7" x1="269.43" y1="205.81" x2="276.89" y2="218.21"/>
	<line class="st7" x1="261.47" y1="210.6" x2="268.94" y2="223"/>
</g>
</svg>
