<?xml version="1.0" encoding="UTF-8" standalone="no"?>
<!-- Created with Inkscape (http://www.inkscape.org/) -->

<svg
   width="210mm"
   height="297mm"
   viewBox="0 0 210 297"
   version="1.1"
   id="svg27770"
   inkscape:version="1.2.1 (9c6d41e410, 2022-07-14)"
   sodipodi:docname="qPCR.svg"
   xmlns:inkscape="http://www.inkscape.org/namespaces/inkscape"
   xmlns:sodipodi="http://sodipodi.sourceforge.net/DTD/sodipodi-0.dtd"
   xmlns="http://www.w3.org/2000/svg"
   xmlns:svg="http://www.w3.org/2000/svg">
  <sodipodi:namedview
     id="namedview27772"
     pagecolor="#ffffff"
     bordercolor="#666666"
     borderopacity="1.0"
     inkscape:showpageshadow="2"
     inkscape:pageopacity="0.0"
     inkscape:pagecheckerboard="0"
     inkscape:deskcolor="#d1d1d1"
     inkscape:document-units="mm"
     showgrid="false"
     inkscape:zoom="0.914906"
     inkscape:cx="288.55423"
     inkscape:cy="560.71334"
     inkscape:window-width="3440"
     inkscape:window-height="1369"
     inkscape:window-x="-8"
     inkscape:window-y="-8"
     inkscape:window-maximized="1"
     inkscape:current-layer="layer1" />
  <defs
     id="defs27767" />
  <g
     inkscape:label="Ebene 1"
     inkscape:groupmode="layer"
     id="layer1">
    <g
       id="g87423"
       transform="matrix(0.35277777,0,0,-0.35277777,-944.37632,1174.1173)">
      <path
         style="fill:none;stroke:#800000;stroke-width:1.49573;stroke-linecap:butt;stroke-linejoin:miter;stroke-dasharray:none;stroke-opacity:1"
         d="m 2856.6382,3061.2274 c 0,0 31.2115,-2.8945 43.27,7.2946 31.4191,26.5484 24.9962,96.6811 56.154,123.7069 11.3945,9.8834 41.0824,8.2066 41.0824,8.2066"
         id="path87175"
         sodipodi:nodetypes="caac" />
      <path
         style="fill:none;stroke:#0000ff;stroke-width:1.49573;stroke-linecap:butt;stroke-linejoin:miter;stroke-dasharray:none;stroke-opacity:1"
         d="m 2978.7775,3061.2274 c 0,0 31.2115,-2.8945 43.27,7.2946 31.4192,26.5484 24.9963,96.6811 56.154,123.7069 11.3945,9.8834 41.0824,8.2066 41.0824,8.2066"
         id="path87386"
         sodipodi:nodetypes="caac" />
      <path
         style="fill:none;stroke:#00ff00;stroke-width:1.49573;stroke-linecap:butt;stroke-linejoin:miter;stroke-dasharray:none;stroke-opacity:1"
         d="m 2917.8357,3061.2274 c 0,0 31.2115,-2.8945 43.2699,7.2946 31.4192,26.5484 24.9963,96.6811 56.1541,123.7069 11.3944,9.8834 41.0823,8.2066 41.0823,8.2066"
         id="path87388"
         sodipodi:nodetypes="caac" />
      <path
         style="fill:none;stroke:#ff0000;stroke-width:1.49573;stroke-linecap:butt;stroke-linejoin:miter;stroke-dasharray:none;stroke-opacity:1"
         d="m 2877.2078,3061.2274 c 0,0 31.2114,-2.8945 43.27,7.2946 31.4191,26.5484 24.9962,96.6811 56.154,123.7069 11.3945,9.8834 41.0824,8.2066 41.0824,8.2066"
         id="path87390"
         sodipodi:nodetypes="caac" />
      <path
         style="fill:none;stroke:#ff6600;stroke-width:1.49573;stroke-linecap:butt;stroke-linejoin:miter;stroke-dasharray:none;stroke-opacity:1"
         d="m 2897.5218,3061.2274 c 0,0 31.2114,-2.8945 43.27,7.2946 31.4191,26.5484 24.9962,96.6811 56.154,123.7069 11.3944,9.8834 41.0824,8.2066 41.0824,8.2066"
         id="path87392"
         sodipodi:nodetypes="caac" />
      <path
         style="fill:none;stroke:#008000;stroke-width:1.49573;stroke-linecap:butt;stroke-linejoin:miter;stroke-dasharray:none;stroke-opacity:1"
         d="m 2938.1497,3061.2274 c 0,0 31.2115,-2.8945 43.2699,7.2946 31.4192,26.5484 24.9962,96.6811 56.1541,123.7069 11.3944,9.8834 41.0823,8.2066 41.0823,8.2066"
         id="path87394"
         sodipodi:nodetypes="caac" />
      <path
         style="fill:none;stroke:#800080;stroke-width:1.49573;stroke-linecap:butt;stroke-linejoin:miter;stroke-dasharray:none;stroke-opacity:1"
         d="m 2999.0914,3061.2274 c 0,0 31.2115,-2.8945 43.27,7.2946 31.4192,26.5484 24.9963,96.6811 56.154,123.7069 11.3945,9.8834 41.0824,8.2066 41.0824,8.2066"
         id="path87396"
         sodipodi:nodetypes="caac" />
      <path
         style="fill:none;stroke:#00ffff;stroke-width:1.49573;stroke-linecap:butt;stroke-linejoin:miter;stroke-dasharray:none;stroke-opacity:1"
         d="m 2958.4635,3061.2274 c 0,0 31.2116,-2.8945 43.27,7.2946 31.4191,26.5484 24.9963,96.6811 56.154,123.7069 11.3945,9.8834 41.0824,8.2066 41.0824,8.2066"
         id="path87400"
         sodipodi:nodetypes="caac" />
      <g
         id="g87384">
        <path
           style="fill:none;stroke:#808080;stroke-width:0.52916;stroke-linecap:butt;stroke-linejoin:miter;stroke-dasharray:none;stroke-opacity:1"
           d="m 2856.5999,3159.0333 h 283.4646"
           id="path85728" />
        <path
           style="fill:none;stroke:#808080;stroke-width:0.52916;stroke-linecap:butt;stroke-linejoin:miter;stroke-dasharray:none;stroke-opacity:1"
           d="m 2856.5999,3173.169 h 283.4646"
           id="path85728-7" />
        <path
           style="fill:none;stroke:#808080;stroke-width:0.52916;stroke-linecap:butt;stroke-linejoin:miter;stroke-dasharray:none;stroke-opacity:1"
           d="m 2856.5999,3187.3048 h 283.4646"
           id="path85728-9" />
        <path
           style="fill:none;stroke:#808080;stroke-width:0.52916;stroke-linecap:butt;stroke-linejoin:miter;stroke-dasharray:none;stroke-opacity:1"
           d="m 2856.5999,3201.4405 h 283.4646"
           id="path85728-0" />
        <path
           style="fill:none;stroke:#808080;stroke-width:0.52916;stroke-linecap:butt;stroke-linejoin:miter;stroke-dasharray:none;stroke-opacity:1"
           d="m 2856.5999,3144.8976 h 283.4646"
           id="path85728-5" />
        <path
           style="fill:none;stroke:#808080;stroke-width:0.52916;stroke-linecap:butt;stroke-linejoin:miter;stroke-dasharray:none;stroke-opacity:1"
           d="m 2856.5999,3116.6261 h 283.4646"
           id="path85728-54" />
        <path
           style="fill:none;stroke:#808080;stroke-width:0.52916;stroke-linecap:butt;stroke-linejoin:miter;stroke-dasharray:none;stroke-opacity:1"
           d="m 2856.5999,3102.4904 h 283.4646"
           id="path85728-6" />
        <path
           style="fill:none;stroke:#808080;stroke-width:0.52916;stroke-linecap:butt;stroke-linejoin:miter;stroke-dasharray:none;stroke-opacity:1"
           d="m 2856.5999,3074.2189 h 283.4646"
           id="path85728-07" />
        <path
           style="fill:none;stroke:#808080;stroke-width:0.52916;stroke-linecap:butt;stroke-linejoin:miter;stroke-dasharray:none;stroke-opacity:1"
           d="m 2856.5999,3088.3547 h 283.4646"
           id="path85728-4" />
        <path
           style="fill:none;stroke:#808080;stroke-width:0.52916;stroke-linecap:butt;stroke-linejoin:miter;stroke-dasharray:none;stroke-opacity:1"
           d="m 2856.5999,3130.7619 h 283.4646"
           id="path85728-1" />
        <path
           style="fill:none;stroke:#000000;stroke-width:2.12132;stroke-linecap:butt;stroke-linejoin:miter;stroke-dasharray:none;stroke-opacity:1"
           d="M 2857.6606,3201.628 V 3059.8957"
           id="path77517" />
        <path
           style="fill:none;stroke:#000000;stroke-width:2.12132;stroke-linecap:butt;stroke-linejoin:miter;stroke-dasharray:none;stroke-opacity:1"
           d="M 3140.0645,3060.6457 H 2856.5999"
           id="path85720" />
      </g>
    </g>
  </g>
</svg>
